<svg xmlns="http://www.w3.org/2000/svg" viewBox="0 0 1037.11 1277.84"><defs><style>.cls-1{fill:#baffaa;}.cls-1,.cls-3{stroke:#000;stroke-miterlimit:10;}.cls-2{font-size:77.99px;fill:#ff8955;}.cls-2,.cls-4{font-family:Impact, Impact;}.cls-3{stroke-width:0.25px;font-size:649.9px;}.cls-4{font-size:129.98px;fill:#4d4d4d;}</style></defs><title>Asset 3</title><g id="Layer_2" data-name="Layer 2"><g id="Layer_1-2" data-name="Layer 1"><path class="cls-1" d="M1036.61,415.09c0,187.83-153.21,536.45-320.18,771-87.14,122.4-289.66,121.4-376.09-1.38C176.36,951.77,1.67,596.23.51,411.55a685.08,685.08,0,0,1,3.13-69.86c6.9-71.76,59-134,134.3-162.12,83-31,155.19-75.39,219.87-127.77,82.73-67,209.67-68.55,294.48-3.6C743.5,118.05,829.12,167.76,898.78,193c77.89,28.21,130.12,93.5,135.76,167.52Q1036.6,387.57,1036.61,415.09Z"/><text></text><text class="cls-2" transform="translate(256.13 584.35) scale(1.37 1)"><tspan xml:space="preserve">         </tspan><tspan class="cls-3" x="1.49" y="259.96">C</tspan></text><text class="cls-4" transform="translate(689.37 909.1) scale(1.37 1)">R</text></g></g></svg>